<svg xmlns="http://www.w3.org/2000/svg" width="1040" height="650" viewBox="0 0 1040 650" role="img">
<title>attention headとValue位置の因果的ablation</title>
<desc>上段は各headを0にしたときの教師強制NLL変化。下段はgreedy生成をhidden testで再評価した合格率。</desc>
<rect width="100%" height="100%" fill="#fff"/>
<style>text{font-family:system-ui,sans-serif;fill:#17212b;font-size:12px}.small{font-size:10px;fill:#52606d}.title{font-size:20px;font-weight:500}.label{font-size:13px;font-weight:500}</style>
<text x="24" y="30" class="title">attention headとValue位置の因果的ablation</text>
<text x="24" y="52" class="small">上段は各headを0にしたときの教師強制NLL変化。下段はgreedy生成をhidden testで再評価した合格率。</text>
<line x1="72" y1="282.91" x2="992" y2="282.91" stroke="#66717d"/>
<rect x="74.68" y="190.57" width="13.80" height="92.34" fill="#4f7f96"/>
<rect x="93.85" y="168.33" width="13.80" height="114.58" fill="#b35438"/>
<rect x="113.02" y="236.94" width="13.80" height="45.97" fill="#4f7f96"/>
<rect x="132.18" y="184.32" width="13.80" height="98.59" fill="#b35438"/>
<text x="139.08" y="345" text-anchor="middle" class="small">L1</text>
<rect x="151.35" y="233.57" width="13.80" height="49.34" fill="#4f7f96"/>
<rect x="170.52" y="215.00" width="13.80" height="67.91" fill="#4f7f96"/>
<rect x="189.68" y="241.62" width="13.80" height="41.29" fill="#4f7f96"/>
<rect x="208.85" y="257.09" width="13.80" height="25.82" fill="#4f7f96"/>
<rect x="228.02" y="252.60" width="13.80" height="30.31" fill="#4f7f96"/>
<rect x="247.18" y="256.11" width="13.80" height="26.80" fill="#4f7f96"/>
<text x="254.08" y="345" text-anchor="middle" class="small">L2</text>
<rect x="266.35" y="276.99" width="13.80" height="5.92" fill="#4f7f96"/>
<rect x="285.52" y="227.57" width="13.80" height="55.34" fill="#4f7f96"/>
<rect x="304.68" y="282.91" width="13.80" height="0.98" fill="#4f7f96"/>
<rect x="323.85" y="277.25" width="13.80" height="5.66" fill="#4f7f96"/>
<rect x="343.02" y="278.43" width="13.80" height="4.48" fill="#4f7f96"/>
<rect x="362.18" y="104.55" width="13.80" height="178.36" fill="#b35438"/>
<text x="369.08" y="345" text-anchor="middle" class="small">L3</text>
<rect x="381.35" y="279.20" width="13.80" height="3.71" fill="#4f7f96"/>
<rect x="400.52" y="266.51" width="13.80" height="16.40" fill="#4f7f96"/>
<rect x="419.68" y="282.17" width="13.80" height="0.74" fill="#4f7f96"/>
<rect x="438.85" y="281.75" width="13.80" height="1.16" fill="#4f7f96"/>
<rect x="458.02" y="280.10" width="13.80" height="2.81" fill="#4f7f96"/>
<rect x="477.18" y="279.66" width="13.80" height="3.25" fill="#4f7f96"/>
<text x="484.08" y="345" text-anchor="middle" class="small">L4</text>
<rect x="496.35" y="282.91" width="13.80" height="0.70" fill="#4f7f96"/>
<rect x="515.52" y="282.35" width="13.80" height="0.70" fill="#4f7f96"/>
<rect x="534.68" y="280.10" width="13.80" height="2.81" fill="#4f7f96"/>
<rect x="553.85" y="282.10" width="13.80" height="0.81" fill="#4f7f96"/>
<rect x="573.02" y="282.13" width="13.80" height="0.78" fill="#4f7f96"/>
<rect x="592.18" y="280.46" width="13.80" height="2.45" fill="#4f7f96"/>
<text x="599.08" y="345" text-anchor="middle" class="small">L5</text>
<rect x="611.35" y="280.34" width="13.80" height="2.57" fill="#4f7f96"/>
<rect x="630.52" y="281.54" width="13.80" height="1.37" fill="#4f7f96"/>
<rect x="649.68" y="282.91" width="13.80" height="0.70" fill="#4f7f96"/>
<rect x="668.85" y="281.54" width="13.80" height="1.37" fill="#4f7f96"/>
<rect x="688.02" y="281.10" width="13.80" height="1.81" fill="#4f7f96"/>
<rect x="707.18" y="224.70" width="13.80" height="58.21" fill="#4f7f96"/>
<text x="714.08" y="345" text-anchor="middle" class="small">L6</text>
<rect x="726.35" y="282.91" width="13.80" height="0.70" fill="#4f7f96"/>
<rect x="745.52" y="281.98" width="13.80" height="0.93" fill="#4f7f96"/>
<rect x="764.68" y="282.91" width="13.80" height="7.17" fill="#4f7f96"/>
<rect x="783.85" y="282.91" width="13.80" height="0.70" fill="#4f7f96"/>
<rect x="803.02" y="282.91" width="13.80" height="1.98" fill="#4f7f96"/>
<rect x="822.18" y="282.91" width="13.80" height="28.54" fill="#4f7f96"/>
<text x="829.08" y="345" text-anchor="middle" class="small">L7</text>
<rect x="841.35" y="282.91" width="13.80" height="3.67" fill="#4f7f96"/>
<rect x="860.52" y="282.91" width="13.80" height="1.68" fill="#4f7f96"/>
<rect x="879.68" y="282.91" width="13.80" height="2.59" fill="#4f7f96"/>
<rect x="898.85" y="221.40" width="13.80" height="61.51" fill="#4f7f96"/>
<rect x="918.02" y="282.91" width="13.80" height="7.17" fill="#4f7f96"/>
<rect x="937.18" y="282.91" width="13.80" height="4.03" fill="#4f7f96"/>
<text x="944.08" y="345" text-anchor="middle" class="small">L8</text>
<rect x="956.35" y="202.49" width="13.80" height="80.42" fill="#4f7f96"/>
<rect x="975.52" y="282.91" width="13.80" height="3.65" fill="#4f7f96"/>
<text x="20" y="208.0" text-anchor="middle" transform="rotate(-90 20 208.0)">NLL差（無効化後−基準、nat/token）</text>
<line x1="72" y1="570.00" x2="992" y2="570.00" stroke="#e5e8eb"/>
<text x="63" y="574.00" text-anchor="end" class="small">0%</text>
<line x1="72" y1="538.00" x2="992" y2="538.00" stroke="#e5e8eb"/>
<text x="63" y="542.00" text-anchor="end" class="small">20%</text>
<line x1="72" y1="506.00" x2="992" y2="506.00" stroke="#e5e8eb"/>
<text x="63" y="510.00" text-anchor="end" class="small">40%</text>
<line x1="72" y1="474.00" x2="992" y2="474.00" stroke="#e5e8eb"/>
<text x="63" y="478.00" text-anchor="end" class="small">60%</text>
<line x1="72" y1="442.00" x2="992" y2="442.00" stroke="#e5e8eb"/>
<text x="63" y="446.00" text-anchor="end" class="small">80%</text>
<line x1="72" y1="410.00" x2="992" y2="410.00" stroke="#e5e8eb"/>
<text x="63" y="414.00" text-anchor="end" class="small">100%</text>
<rect x="93.47" y="410.00" width="59.29" height="160.00" fill="#356f8a"/>
<text x="123.11" y="403.00" text-anchor="middle" class="small">100.0%</text>
<text x="123.11" y="588" text-anchor="middle" class="small">baseline</text>
<rect x="195.69" y="556.67" width="59.29" height="13.33" fill="#a76b49"/>
<text x="225.33" y="549.67" text-anchor="middle" class="small">8.3%</text>
<text x="225.33" y="588" text-anchor="middle" class="small">BOS Value=0</text>
<rect x="297.91" y="570.00" width="59.29" height="0.00" fill="#a76b49"/>
<text x="327.56" y="563.00" text-anchor="middle" class="small">0.0%</text>
<text x="327.56" y="588" text-anchor="middle" class="small">日本語 Value=0</text>
<rect x="400.13" y="456.67" width="59.29" height="113.33" fill="#a76b49"/>
<text x="429.78" y="449.67" text-anchor="middle" class="small">70.8%</text>
<text x="429.78" y="588" text-anchor="middle" class="small">L3H4=0</text>
<rect x="502.36" y="423.33" width="59.29" height="146.67" fill="#a76b49"/>
<text x="532.00" y="416.33" text-anchor="middle" class="small">91.7%</text>
<text x="532.00" y="588" text-anchor="middle" class="small">L1H2=0</text>
<rect x="604.58" y="430.00" width="59.29" height="140.00" fill="#a76b49"/>
<text x="634.22" y="423.00" text-anchor="middle" class="small">87.5%</text>
<text x="634.22" y="588" text-anchor="middle" class="small">L1H4=0</text>
<rect x="706.80" y="410.00" width="59.29" height="160.00" fill="#a76b49"/>
<text x="736.44" y="403.00" text-anchor="middle" class="small">100.0%</text>
<text x="736.44" y="588" text-anchor="middle" class="small">L7H2=0</text>
<rect x="809.02" y="410.00" width="59.29" height="160.00" fill="#a76b49"/>
<text x="838.67" y="403.00" text-anchor="middle" class="small">100.0%</text>
<text x="838.67" y="588" text-anchor="middle" class="small">L6H1=0</text>
<rect x="911.24" y="410.00" width="59.29" height="160.00" fill="#a76b49"/>
<text x="940.89" y="403.00" text-anchor="middle" class="small">100.0%</text>
<text x="940.89" y="588" text-anchor="middle" class="small">L4H6=0</text>
</svg>