<svg xmlns="http://www.w3.org/2000/svg" width="1080" height="560" viewBox="0 0 1080 560" role="img">
<title>最終生成stepのtoken別参照量</title>
<desc>生attention、Valueノルムを含む構成比、8層attention rolloutを同じtoken位置で比較。</desc>
<rect width="100%" height="100%" fill="#fff"/>
<style>text{font-family:system-ui,sans-serif;fill:#17212b;font-size:12px}.small{font-size:10px;fill:#52606d}.title{font-size:20px;font-weight:500}.label{font-size:13px;font-weight:500}</style>
<text x="24" y="30" class="title">最終生成stepのtoken別参照量</text>
<text x="24" y="52" class="small">生attention、Valueノルムを含む構成比、8層attention rolloutを同じtoken位置で比較。</text>
<line x1="72" y1="442.00" x2="1022" y2="442.00" stroke="#e5e8eb"/>
<text x="63" y="446.00" text-anchor="end" class="small">0%</text>
<line x1="72" y1="372.00" x2="1022" y2="372.00" stroke="#e5e8eb"/>
<text x="63" y="376.00" text-anchor="end" class="small">2%</text>
<line x1="72" y1="302.00" x2="1022" y2="302.00" stroke="#e5e8eb"/>
<text x="63" y="306.00" text-anchor="end" class="small">4%</text>
<line x1="72" y1="232.00" x2="1022" y2="232.00" stroke="#e5e8eb"/>
<text x="63" y="236.00" text-anchor="end" class="small">5%</text>
<line x1="72" y1="162.00" x2="1022" y2="162.00" stroke="#e5e8eb"/>
<text x="63" y="166.00" text-anchor="end" class="small">7%</text>
<line x1="72" y1="92.00" x2="1022" y2="92.00" stroke="#e5e8eb"/>
<text x="63" y="96.00" text-anchor="end" class="small">9%</text>
<rect x="76.75" y="325.34" width="7.46" height="116.66" fill="#356f8a"/>
<rect x="84.21" y="313.68" width="7.46" height="128.32" fill="#b06b45"/>
<rect x="91.68" y="129.50" width="7.46" height="312.50" fill="#6c5b8e"/>
<text x="88.96" y="455" transform="rotate(60 88.96 455)" class="small">&lt;|bos|</text>
<rect x="110.68" y="343.83" width="7.46" height="98.17" fill="#356f8a"/>
<rect x="118.14" y="330.86" width="7.46" height="111.14" fill="#b06b45"/>
<rect x="125.61" y="229.40" width="7.46" height="212.60" fill="#6c5b8e"/>
<text x="122.89" y="455" transform="rotate(60 122.89 455)" class="small">&lt;|task</text>
<rect x="144.61" y="349.46" width="7.46" height="92.54" fill="#356f8a"/>
<rect x="152.07" y="338.20" width="7.46" height="103.80" fill="#b06b45"/>
<rect x="159.54" y="222.78" width="7.46" height="219.22" fill="#6c5b8e"/>
<text x="156.82" y="455" transform="rotate(60 156.82 455)" class="small">↵</text>
<rect x="178.54" y="355.46" width="7.46" height="86.54" fill="#356f8a"/>
<rect x="186.00" y="363.51" width="7.46" height="78.49" fill="#b06b45"/>
<rect x="193.46" y="275.67" width="7.46" height="166.33" fill="#6c5b8e"/>
<text x="190.75" y="455" transform="rotate(60 190.75 455)" class="small">整数リストxs�</text>
<rect x="212.46" y="337.06" width="7.46" height="104.94" fill="#356f8a"/>
<rect x="219.93" y="351.27" width="7.46" height="90.73" fill="#b06b45"/>
<rect x="227.39" y="285.04" width="7.46" height="156.96" fill="#6c5b8e"/>
<text x="224.68" y="455" transform="rotate(60 224.68 455)" class="small">�</text>
<rect x="246.39" y="323.75" width="7.46" height="118.25" fill="#356f8a"/>
<rect x="253.86" y="332.43" width="7.46" height="109.57" fill="#b06b45"/>
<rect x="261.32" y="293.07" width="7.46" height="148.93" fill="#6c5b8e"/>
<text x="258.61" y="455" transform="rotate(60 258.61 455)" class="small">対</text>
<rect x="280.32" y="340.40" width="7.46" height="101.60" fill="#356f8a"/>
<rect x="287.79" y="366.48" width="7.46" height="75.52" fill="#b06b45"/>
<rect x="295.25" y="311.72" width="7.46" height="130.28" fill="#6c5b8e"/>
<text x="292.54" y="455" transform="rotate(60 292.54 455)" class="small">して、</text>
<rect x="314.25" y="326.88" width="7.46" height="115.12" fill="#356f8a"/>
<rect x="321.71" y="329.14" width="7.46" height="112.86" fill="#b06b45"/>
<rect x="329.18" y="314.57" width="7.46" height="127.43" fill="#6c5b8e"/>
<text x="326.46" y="455" transform="rotate(60 326.46 455)" class="small">各要素の絶対値</text>
<rect x="348.18" y="344.33" width="7.46" height="97.67" fill="#356f8a"/>
<rect x="355.64" y="364.45" width="7.46" height="77.55" fill="#b06b45"/>
<rect x="363.11" y="326.67" width="7.46" height="115.33" fill="#6c5b8e"/>
<text x="360.39" y="455" transform="rotate(60 360.39 455)" class="small">を取</text>
<rect x="382.11" y="340.26" width="7.46" height="101.74" fill="#356f8a"/>
<rect x="389.57" y="352.11" width="7.46" height="89.89" fill="#b06b45"/>
<rect x="397.04" y="333.14" width="7.46" height="108.86" fill="#6c5b8e"/>
<text x="394.32" y="455" transform="rotate(60 394.32 455)" class="small">るsolve関数を</text>
<rect x="416.04" y="332.11" width="7.46" height="109.89" fill="#356f8a"/>
<rect x="423.50" y="351.24" width="7.46" height="90.76" fill="#b06b45"/>
<rect x="430.96" y="330.37" width="7.46" height="111.63" fill="#6c5b8e"/>
<text x="428.25" y="455" transform="rotate(60 428.25 455)" class="small">いてください。</text>
<rect x="449.96" y="343.79" width="7.46" height="98.21" fill="#356f8a"/>
<rect x="457.43" y="325.11" width="7.46" height="116.89" fill="#b06b45"/>
<rect x="464.89" y="325.02" width="7.46" height="116.98" fill="#6c5b8e"/>
<text x="462.18" y="455" transform="rotate(60 462.18 455)" class="small">↵</text>
<rect x="483.89" y="300.26" width="7.46" height="141.74" fill="#356f8a"/>
<rect x="491.36" y="302.40" width="7.46" height="139.60" fill="#b06b45"/>
<rect x="498.82" y="323.16" width="7.46" height="118.84" fill="#6c5b8e"/>
<text x="496.11" y="455" transform="rotate(60 496.11 455)" class="small">&lt;|code</text>
<rect x="517.82" y="337.15" width="7.46" height="104.85" fill="#356f8a"/>
<rect x="525.29" y="319.45" width="7.46" height="122.55" fill="#b06b45"/>
<rect x="532.75" y="333.83" width="7.46" height="108.17" fill="#6c5b8e"/>
<text x="530.04" y="455" transform="rotate(60 530.04 455)" class="small">↵</text>
<rect x="551.75" y="274.29" width="7.46" height="167.71" fill="#356f8a"/>
<rect x="559.21" y="245.84" width="7.46" height="196.16" fill="#b06b45"/>
<rect x="566.68" y="327.25" width="7.46" height="114.75" fill="#6c5b8e"/>
<text x="563.96" y="455" transform="rotate(60 563.96 455)" class="small">def␠solve</text>
<rect x="585.68" y="286.01" width="7.46" height="155.99" fill="#356f8a"/>
<rect x="593.14" y="270.45" width="7.46" height="171.55" fill="#b06b45"/>
<rect x="600.61" y="333.88" width="7.46" height="108.12" fill="#6c5b8e"/>
<text x="597.89" y="455" transform="rotate(60 597.89 455)" class="small">(xs:␠list</text>
<rect x="619.61" y="228.15" width="7.46" height="213.85" fill="#356f8a"/>
<rect x="627.07" y="176.92" width="7.46" height="265.08" fill="#b06b45"/>
<rect x="634.54" y="316.82" width="7.46" height="125.18" fill="#6c5b8e"/>
<text x="631.82" y="455" transform="rotate(60 631.82 455)" class="small">:␠int)␠</text>
<rect x="653.54" y="240.99" width="7.46" height="201.01" fill="#356f8a"/>
<rect x="661.00" y="216.29" width="7.46" height="225.71" fill="#b06b45"/>
<rect x="668.46" y="325.84" width="7.46" height="116.16" fill="#6c5b8e"/>
<text x="665.75" y="455" transform="rotate(60 665.75 455)" class="small">-&gt;␠lis</text>
<rect x="687.46" y="307.20" width="7.46" height="134.80" fill="#356f8a"/>
<rect x="694.93" y="341.14" width="7.46" height="100.86" fill="#b06b45"/>
<rect x="702.39" y="361.57" width="7.46" height="80.43" fill="#6c5b8e"/>
<text x="699.68" y="455" transform="rotate(60 699.68 455)" class="small">各要素の</text>
<rect x="721.39" y="305.45" width="7.46" height="136.55" fill="#356f8a"/>
<rect x="728.86" y="329.96" width="7.46" height="112.04" fill="#b06b45"/>
<rect x="736.32" y="363.11" width="7.46" height="78.89" fill="#6c5b8e"/>
<text x="733.61" y="455" transform="rotate(60 733.61 455)" class="small">符号を反転</text>
<rect x="755.32" y="289.83" width="7.46" height="152.17" fill="#356f8a"/>
<rect x="762.79" y="301.35" width="7.46" height="140.65" fill="#b06b45"/>
<rect x="770.25" y="359.61" width="7.46" height="82.39" fill="#6c5b8e"/>
<text x="767.54" y="455" transform="rotate(60 767.54 455)" class="small">する↵␠␠␠␠</text>
<rect x="789.25" y="268.29" width="7.46" height="173.71" fill="#356f8a"/>
<rect x="796.71" y="255.48" width="7.46" height="186.52" fill="#b06b45"/>
<rect x="804.18" y="349.91" width="7.46" height="92.09" fill="#6c5b8e"/>
<text x="801.46" y="455" transform="rotate(60 801.46 455)" class="small">output:␠l</text>
<rect x="823.18" y="284.90" width="7.46" height="157.10" fill="#356f8a"/>
<rect x="830.64" y="265.55" width="7.46" height="176.45" fill="#b06b45"/>
<rect x="838.11" y="359.51" width="7.46" height="82.49" fill="#6c5b8e"/>
<text x="835.39" y="455" transform="rotate(60 835.39 455)" class="small">␠=␠[]↵␠␠␠</text>
<rect x="857.11" y="316.68" width="7.46" height="125.32" fill="#356f8a"/>
<rect x="864.57" y="325.75" width="7.46" height="116.25" fill="#b06b45"/>
<rect x="872.04" y="380.17" width="7.46" height="61.83" fill="#6c5b8e"/>
<text x="869.32" y="455" transform="rotate(60 869.32 455)" class="small">xs:↵␠␠␠␠␠</text>
<rect x="891.04" y="283.46" width="7.46" height="158.54" fill="#356f8a"/>
<rect x="898.50" y="282.07" width="7.46" height="159.93" fill="#b06b45"/>
<rect x="905.96" y="369.24" width="7.46" height="72.76" fill="#6c5b8e"/>
<text x="903.25" y="455" transform="rotate(60 903.25 455)" class="small">abs(value</text>
<rect x="924.96" y="293.76" width="7.46" height="148.24" fill="#356f8a"/>
<rect x="932.43" y="312.71" width="7.46" height="129.29" fill="#b06b45"/>
<rect x="939.89" y="376.03" width="7.46" height="65.97" fill="#6c5b8e"/>
<text x="937.18" y="455" transform="rotate(60 937.18 455)" class="small">]↵␠␠␠␠#␠</text>
<rect x="958.89" y="293.97" width="7.46" height="148.03" fill="#356f8a"/>
<rect x="966.36" y="313.88" width="7.46" height="128.12" fill="#b06b45"/>
<rect x="973.82" y="378.19" width="7.46" height="63.81" fill="#6c5b8e"/>
<text x="971.11" y="455" transform="rotate(60 971.11 455)" class="small">先頭からk個を取</text>
<rect x="992.82" y="241.63" width="7.46" height="200.37" fill="#356f8a"/>
<rect x="1000.29" y="225.86" width="7.46" height="216.14" fill="#b06b45"/>
<rect x="1007.75" y="359.70" width="7.46" height="82.30" fill="#6c5b8e"/>
<text x="1005.04" y="455" transform="rotate(60 1005.04 455)" class="small">る↵␠␠␠␠out</text>
<rect x="72" y="528" width="12" height="12" fill="#356f8a"/>
<text x="89" y="538" class="small">生attention</text>
<rect x="332" y="528" width="12" height="12" fill="#b06b45"/>
<text x="349" y="538" class="small">attention×projected Value norm</text>
<rect x="592" y="528" width="12" height="12" fill="#6c5b8e"/>
<text x="609" y="538" class="small">attention rollout</text>
</svg>