<svg xmlns="http://www.w3.org/2000/svg" width="940" height="520" viewBox="0 0 940 520" role="img">
<title>生成中にどの領域を参照したか</title>
<desc>上は排他的な領域内訳。下は冒頭4 tokenと直近4 tokenへのattentionで、上の領域とは重複する。</desc>
<rect width="100%" height="100%" fill="#fff"/>
<style>text{font-family:system-ui,sans-serif;fill:#17212b;font-size:12px}.small{font-size:10px;fill:#52606d}.title{font-size:20px;font-weight:500}.label{font-size:13px;font-weight:500}</style>
<text x="24" y="30" class="title">生成中にどの領域を参照したか</text>
<text x="24" y="52" class="small">上は排他的な領域内訳。下は冒頭4 tokenと直近4 tokenへのattentionで、上の領域とは重複する。</text>
<rect x="81.22" y="156.09" width="26.84" height="80.91" fill="#9fb8c9"/>
<rect x="81.22" y="82.00" width="26.84" height="74.09" fill="#3d7591"/>
<rect x="81.22" y="82.00" width="26.84" height="0.00" fill="#d08a55"/>
<text x="94.64" y="255" text-anchor="middle" class="small">1</text>
<rect x="118.49" y="161.42" width="26.84" height="75.58" fill="#9fb8c9"/>
<rect x="118.49" y="95.77" width="26.84" height="65.65" fill="#3d7591"/>
<rect x="118.49" y="82.00" width="26.84" height="13.77" fill="#d08a55"/>
<text x="131.91" y="255" text-anchor="middle" class="small">2</text>
<rect x="155.76" y="166.47" width="26.84" height="70.53" fill="#9fb8c9"/>
<rect x="155.76" y="111.15" width="26.84" height="55.32" fill="#3d7591"/>
<rect x="155.76" y="82.00" width="26.84" height="29.15" fill="#d08a55"/>
<text x="169.18" y="255" text-anchor="middle" class="small">3</text>
<rect x="193.04" y="194.31" width="26.84" height="42.69" fill="#9fb8c9"/>
<rect x="193.04" y="110.56" width="26.84" height="83.74" fill="#3d7591"/>
<rect x="193.04" y="82.00" width="26.84" height="28.56" fill="#d08a55"/>
<text x="206.45" y="255" text-anchor="middle" class="small">4</text>
<rect x="230.31" y="203.62" width="26.84" height="33.38" fill="#9fb8c9"/>
<rect x="230.31" y="124.40" width="26.84" height="79.21" fill="#3d7591"/>
<rect x="230.31" y="82.00" width="26.84" height="42.40" fill="#d08a55"/>
<text x="243.73" y="255" text-anchor="middle" class="small">5</text>
<rect x="267.58" y="179.92" width="26.84" height="57.08" fill="#9fb8c9"/>
<rect x="267.58" y="143.22" width="26.84" height="36.70" fill="#3d7591"/>
<rect x="267.58" y="82.00" width="26.84" height="61.22" fill="#d08a55"/>
<text x="281.00" y="255" text-anchor="middle" class="small">6</text>
<rect x="304.85" y="186.99" width="26.84" height="50.01" fill="#9fb8c9"/>
<rect x="304.85" y="145.24" width="26.84" height="41.75" fill="#3d7591"/>
<rect x="304.85" y="82.00" width="26.84" height="63.24" fill="#d08a55"/>
<text x="318.27" y="255" text-anchor="middle" class="small">7</text>
<rect x="342.13" y="192.41" width="26.84" height="44.59" fill="#9fb8c9"/>
<rect x="342.13" y="144.97" width="26.84" height="47.44" fill="#3d7591"/>
<rect x="342.13" y="82.00" width="26.84" height="62.97" fill="#d08a55"/>
<text x="355.55" y="255" text-anchor="middle" class="small">8</text>
<rect x="379.40" y="198.49" width="26.84" height="38.51" fill="#9fb8c9"/>
<rect x="379.40" y="148.52" width="26.84" height="49.97" fill="#3d7591"/>
<rect x="379.40" y="82.00" width="26.84" height="66.52" fill="#d08a55"/>
<text x="392.82" y="255" text-anchor="middle" class="small">9</text>
<rect x="416.67" y="199.89" width="26.84" height="37.11" fill="#9fb8c9"/>
<rect x="416.67" y="161.68" width="26.84" height="38.21" fill="#3d7591"/>
<rect x="416.67" y="82.00" width="26.84" height="79.68" fill="#d08a55"/>
<text x="430.09" y="255" text-anchor="middle" class="small">10</text>
<rect x="453.95" y="200.45" width="26.84" height="36.55" fill="#9fb8c9"/>
<rect x="453.95" y="163.14" width="26.84" height="37.31" fill="#3d7591"/>
<rect x="453.95" y="82.00" width="26.84" height="81.14" fill="#d08a55"/>
<text x="467.36" y="255" text-anchor="middle" class="small">11</text>
<rect x="491.22" y="197.09" width="26.84" height="39.91" fill="#9fb8c9"/>
<rect x="491.22" y="167.68" width="26.84" height="29.41" fill="#3d7591"/>
<rect x="491.22" y="82.00" width="26.84" height="85.68" fill="#d08a55"/>
<text x="504.64" y="255" text-anchor="middle" class="small">12</text>
<rect x="528.49" y="202.57" width="26.84" height="34.43" fill="#9fb8c9"/>
<rect x="528.49" y="173.00" width="26.84" height="29.57" fill="#3d7591"/>
<rect x="528.49" y="82.00" width="26.84" height="91.00" fill="#d08a55"/>
<text x="541.91" y="255" text-anchor="middle" class="small">13</text>
<rect x="565.76" y="203.36" width="26.84" height="33.64" fill="#9fb8c9"/>
<rect x="565.76" y="181.08" width="26.84" height="22.28" fill="#3d7591"/>
<rect x="565.76" y="82.00" width="26.84" height="99.08" fill="#d08a55"/>
<text x="579.18" y="255" text-anchor="middle" class="small">14</text>
<rect x="603.04" y="207.55" width="26.84" height="29.45" fill="#9fb8c9"/>
<rect x="603.04" y="182.50" width="26.84" height="25.04" fill="#3d7591"/>
<rect x="603.04" y="82.00" width="26.84" height="100.50" fill="#d08a55"/>
<text x="616.45" y="255" text-anchor="middle" class="small">15</text>
<rect x="640.31" y="206.55" width="26.84" height="30.45" fill="#9fb8c9"/>
<rect x="640.31" y="183.62" width="26.84" height="22.93" fill="#3d7591"/>
<rect x="640.31" y="82.00" width="26.84" height="101.62" fill="#d08a55"/>
<text x="653.73" y="255" text-anchor="middle" class="small">16</text>
<rect x="677.58" y="202.96" width="26.84" height="34.04" fill="#9fb8c9"/>
<rect x="677.58" y="178.54" width="26.84" height="24.42" fill="#3d7591"/>
<rect x="677.58" y="82.00" width="26.84" height="96.54" fill="#d08a55"/>
<text x="691.00" y="255" text-anchor="middle" class="small">17</text>
<rect x="714.85" y="208.13" width="26.84" height="28.87" fill="#9fb8c9"/>
<rect x="714.85" y="181.61" width="26.84" height="26.52" fill="#3d7591"/>
<rect x="714.85" y="82.00" width="26.84" height="99.61" fill="#d08a55"/>
<text x="728.27" y="255" text-anchor="middle" class="small">18</text>
<rect x="752.13" y="208.48" width="26.84" height="28.52" fill="#9fb8c9"/>
<rect x="752.13" y="182.19" width="26.84" height="26.29" fill="#3d7591"/>
<rect x="752.13" y="82.00" width="26.84" height="100.19" fill="#d08a55"/>
<text x="765.55" y="255" text-anchor="middle" class="small">19</text>
<rect x="789.40" y="207.81" width="26.84" height="29.19" fill="#9fb8c9"/>
<rect x="789.40" y="185.71" width="26.84" height="22.10" fill="#3d7591"/>
<rect x="789.40" y="82.00" width="26.84" height="103.71" fill="#d08a55"/>
<text x="802.82" y="255" text-anchor="middle" class="small">20</text>
<rect x="826.67" y="211.60" width="26.84" height="25.40" fill="#9fb8c9"/>
<rect x="826.67" y="183.63" width="26.84" height="27.96" fill="#3d7591"/>
<rect x="826.67" y="82.00" width="26.84" height="101.63" fill="#d08a55"/>
<text x="840.09" y="255" text-anchor="middle" class="small">21</text>
<rect x="863.95" y="209.02" width="26.84" height="27.98" fill="#9fb8c9"/>
<rect x="863.95" y="187.22" width="26.84" height="21.81" fill="#3d7591"/>
<rect x="863.95" y="82.00" width="26.84" height="105.22" fill="#d08a55"/>
<text x="877.36" y="255" text-anchor="middle" class="small">22</text>
<rect x="76" y="271" width="12" height="12" fill="#9fb8c9"/>
<text x="93" y="281" class="small">制御token</text>
<rect x="216" y="271" width="12" height="12" fill="#3d7591"/>
<text x="233" y="281" class="small">日本語指示</text>
<rect x="356" y="271" width="12" height="12" fill="#d08a55"/>
<text x="373" y="281" class="small">生成済みコード</text>
<line x1="76" y1="485.00" x2="896" y2="485.00" stroke="#e5e8eb"/>
<text x="67" y="489.00" text-anchor="end" class="small">0%</text>
<line x1="76" y1="454.00" x2="896" y2="454.00" stroke="#e5e8eb"/>
<text x="67" y="458.00" text-anchor="end" class="small">20%</text>
<line x1="76" y1="423.00" x2="896" y2="423.00" stroke="#e5e8eb"/>
<text x="67" y="427.00" text-anchor="end" class="small">40%</text>
<line x1="76" y1="392.00" x2="896" y2="392.00" stroke="#e5e8eb"/>
<text x="67" y="396.00" text-anchor="end" class="small">60%</text>
<line x1="76" y1="361.00" x2="896" y2="361.00" stroke="#e5e8eb"/>
<text x="67" y="365.00" text-anchor="end" class="small">80%</text>
<line x1="76" y1="330.00" x2="896" y2="330.00" stroke="#e5e8eb"/>
<text x="67" y="334.00" text-anchor="end" class="small">100%</text>
<polyline points="94.64,440.29 131.91,442.97 169.18,446.45 206.45,450.24 243.73,457.57 281.00,454.41 318.27,459.48 355.55,462.23 392.82,459.70 430.09,465.98 467.36,468.54 504.64,464.04 541.91,465.73 579.18,467.70 616.45,468.56 653.73,469.20 691.00,467.99 728.27,470.31 765.55,470.94 802.82,469.26 840.09,469.52 877.36,469.53" fill="none" stroke="#704c7d" stroke-width="3"/>
<text x="892" y="348" text-anchor="end" class="small">冒頭4 token</text>
<polyline points="94.64,433.32 131.91,431.70 169.18,431.41 206.45,448.68 243.73,442.60 281.00,437.15 318.27,440.87 355.55,447.09 392.82,451.76 430.09,457.68 467.36,458.10 504.64,456.23 541.91,454.95 579.18,442.18 616.45,445.38 653.73,450.80 691.00,460.48 728.27,459.54 765.55,459.88 802.82,462.74 840.09,452.92 877.36,457.41" fill="none" stroke="#2f7d61" stroke-width="3"/>
<text x="892" y="366" text-anchor="end" class="small">直近4 token</text>
<text x="470.0" y="508" text-anchor="middle" class="small">生成step</text>
</svg>