<svg xmlns="http://www.w3.org/2000/svg" width="1080" height="590" viewBox="0 0 1080 590" role="img">
<title>24操作で見たattention headの記述的な役割</title>
<desc>各セルに24操作の平均値を表示。列がhead、行がlayer。色はパネル内の大小で、因果的重要度ではない。</desc>
<rect width="100%" height="100%" fill="#fff"/>
<style>text{font-family:system-ui,sans-serif;fill:#17212b;font-size:12px}.small{font-size:10px;fill:#52606d}.title{font-size:20px;font-weight:500}.label{font-size:13px;font-weight:500}</style>
<text x="24" y="30" class="title">24操作で見たattention headの記述的な役割</text>
<text x="24" y="52" class="small">各セルに24操作の平均値を表示。列がhead、行がlayer。色はパネル内の大小で、因果的重要度ではない。</text>
<text x="62" y="82" class="label">BOS attention</text>
<rect x="62.00" y="94.00" width="72.20" height="61.53" fill="#7399af" stroke="#ffffff" stroke-width="0.7"/>
<text x="98.00" y="128.17" text-anchor="middle" fill="#ffffff" style="font-size:9px;font-weight:500">6.7%</text>
<rect x="134.00" y="94.00" width="72.20" height="61.53" fill="#39708f" stroke="#ffffff" stroke-width="0.7"/>
<text x="170.00" y="128.17" text-anchor="middle" fill="#ffffff" style="font-size:9px;font-weight:500">7.6%</text>
<rect x="206.00" y="94.00" width="72.20" height="61.53" fill="#487b97" stroke="#ffffff" stroke-width="0.7"/>
<text x="242.00" y="128.17" text-anchor="middle" fill="#ffffff" style="font-size:9px;font-weight:500">7.3%</text>
<rect x="278.00" y="94.00" width="72.20" height="61.53" fill="#6891a9" stroke="#ffffff" stroke-width="0.7"/>
<text x="314.00" y="128.17" text-anchor="middle" fill="#ffffff" style="font-size:9px;font-weight:500">6.9%</text>
<rect x="62.00" y="155.33" width="72.20" height="61.53" fill="#eef2f5" stroke="#ffffff" stroke-width="0.7"/>
<text x="98.00" y="189.50" text-anchor="middle" fill="#15202b" style="font-size:9px;font-weight:500">4.9%</text>
<rect x="134.00" y="155.33" width="72.20" height="61.53" fill="#8aaabc" stroke="#ffffff" stroke-width="0.7"/>
<text x="170.00" y="189.50" text-anchor="middle" fill="#15202b" style="font-size:9px;font-weight:500">6.4%</text>
<rect x="206.00" y="155.33" width="72.20" height="61.53" fill="#c8d7df" stroke="#ffffff" stroke-width="0.7"/>
<text x="242.00" y="189.50" text-anchor="middle" fill="#15202b" style="font-size:9px;font-weight:500">5.5%</text>
<rect x="278.00" y="155.33" width="72.20" height="61.53" fill="#9fb9c8" stroke="#ffffff" stroke-width="0.7"/>
<text x="314.00" y="189.50" text-anchor="middle" fill="#15202b" style="font-size:9px;font-weight:500">6.1%</text>
<rect x="62.00" y="216.67" width="72.20" height="61.53" fill="#b6c9d5" stroke="#ffffff" stroke-width="0.7"/>
<text x="98.00" y="250.83" text-anchor="middle" fill="#15202b" style="font-size:9px;font-weight:500">5.7%</text>
<rect x="134.00" y="216.67" width="72.20" height="61.53" fill="#437794" stroke="#ffffff" stroke-width="0.7"/>
<text x="170.00" y="250.83" text-anchor="middle" fill="#ffffff" style="font-size:9px;font-weight:500">7.4%</text>
<rect x="206.00" y="216.67" width="72.20" height="61.53" fill="#1f5d80" stroke="#ffffff" stroke-width="0.7"/>
<text x="242.00" y="250.83" text-anchor="middle" fill="#ffffff" style="font-size:9px;font-weight:500">7.9%</text>
<rect x="278.00" y="216.67" width="72.20" height="61.53" fill="#c4d4dd" stroke="#ffffff" stroke-width="0.7"/>
<text x="314.00" y="250.83" text-anchor="middle" fill="#15202b" style="font-size:9px;font-weight:500">5.5%</text>
<text x="98.00" y="293" text-anchor="middle" class="small">H1</text>
<text x="170.00" y="293" text-anchor="middle" class="small">H2</text>
<text x="242.00" y="293" text-anchor="middle" class="small">H3</text>
<text x="314.00" y="293" text-anchor="middle" class="small">H4</text>
<text x="56" y="136.93" text-anchor="end" class="small">L1</text>
<text x="56" y="198.27" text-anchor="end" class="small">L2</text>
<text x="56" y="259.60" text-anchor="end" class="small">L3</text>
<text x="350" y="82" text-anchor="end" class="small">薄い＝小、濃い＝大</text>
<text x="406" y="82" class="label">日本語指示attention</text>
<rect x="406.00" y="94.00" width="72.20" height="61.53" fill="#adc3d0" stroke="#ffffff" stroke-width="0.7"/>
<text x="442.00" y="128.17" text-anchor="middle" fill="#15202b" style="font-size:9px;font-weight:500">30.3%</text>
<rect x="478.00" y="94.00" width="72.20" height="61.53" fill="#a1bbc9" stroke="#ffffff" stroke-width="0.7"/>
<text x="514.00" y="128.17" text-anchor="middle" fill="#15202b" style="font-size:9px;font-weight:500">31.8%</text>
<rect x="550.00" y="94.00" width="72.20" height="61.53" fill="#a7bfcd" stroke="#ffffff" stroke-width="0.7"/>
<text x="586.00" y="128.17" text-anchor="middle" fill="#15202b" style="font-size:9px;font-weight:500">31.1%</text>
<rect x="622.00" y="94.00" width="72.20" height="61.53" fill="#a7bfcd" stroke="#ffffff" stroke-width="0.7"/>
<text x="658.00" y="128.17" text-anchor="middle" fill="#15202b" style="font-size:9px;font-weight:500">31.0%</text>
<rect x="406.00" y="155.33" width="72.20" height="61.53" fill="#7b9fb4" stroke="#ffffff" stroke-width="0.7"/>
<text x="442.00" y="189.50" text-anchor="middle" fill="#ffffff" style="font-size:9px;font-weight:500">36.7%</text>
<rect x="478.00" y="155.33" width="72.20" height="61.53" fill="#becfda" stroke="#ffffff" stroke-width="0.7"/>
<text x="514.00" y="189.50" text-anchor="middle" fill="#15202b" style="font-size:9px;font-weight:500">28.1%</text>
<rect x="550.00" y="155.33" width="72.20" height="61.53" fill="#1f5d80" stroke="#ffffff" stroke-width="0.7"/>
<text x="586.00" y="189.50" text-anchor="middle" fill="#ffffff" style="font-size:9px;font-weight:500">48.7%</text>
<rect x="622.00" y="155.33" width="72.20" height="61.53" fill="#aac1ce" stroke="#ffffff" stroke-width="0.7"/>
<text x="658.00" y="189.50" text-anchor="middle" fill="#15202b" style="font-size:9px;font-weight:500">30.7%</text>
<rect x="406.00" y="216.67" width="72.20" height="61.53" fill="#c3d3dd" stroke="#ffffff" stroke-width="0.7"/>
<text x="442.00" y="250.83" text-anchor="middle" fill="#15202b" style="font-size:9px;font-weight:500">27.5%</text>
<rect x="478.00" y="216.67" width="72.20" height="61.53" fill="#eef2f5" stroke="#ffffff" stroke-width="0.7"/>
<text x="514.00" y="250.83" text-anchor="middle" fill="#15202b" style="font-size:9px;font-weight:500">21.9%</text>
<rect x="550.00" y="216.67" width="72.20" height="61.53" fill="#ebf0f4" stroke="#ffffff" stroke-width="0.7"/>
<text x="586.00" y="250.83" text-anchor="middle" fill="#15202b" style="font-size:9px;font-weight:500">22.2%</text>
<rect x="622.00" y="216.67" width="72.20" height="61.53" fill="#d1dde5" stroke="#ffffff" stroke-width="0.7"/>
<text x="658.00" y="250.83" text-anchor="middle" fill="#15202b" style="font-size:9px;font-weight:500">25.6%</text>
<text x="442.00" y="293" text-anchor="middle" class="small">H1</text>
<text x="514.00" y="293" text-anchor="middle" class="small">H2</text>
<text x="586.00" y="293" text-anchor="middle" class="small">H3</text>
<text x="658.00" y="293" text-anchor="middle" class="small">H4</text>
<text x="400" y="136.93" text-anchor="end" class="small">L1</text>
<text x="400" y="198.27" text-anchor="end" class="small">L2</text>
<text x="400" y="259.60" text-anchor="end" class="small">L3</text>
<text x="694" y="82" text-anchor="end" class="small">薄い＝小、濃い＝大</text>
<text x="750" y="82" class="label">直前token attention</text>
<rect x="750.00" y="94.00" width="72.20" height="61.53" fill="#53829d" stroke="#ffffff" stroke-width="0.7"/>
<text x="786.00" y="128.17" text-anchor="middle" fill="#ffffff" style="font-size:9px;font-weight:500">10.3%</text>
<rect x="822.00" y="94.00" width="72.20" height="61.53" fill="#edf1f4" stroke="#ffffff" stroke-width="0.7"/>
<text x="858.00" y="128.17" text-anchor="middle" fill="#15202b" style="font-size:9px;font-weight:500">6.4%</text>
<rect x="894.00" y="94.00" width="72.20" height="61.53" fill="#cbd9e1" stroke="#ffffff" stroke-width="0.7"/>
<text x="930.00" y="128.17" text-anchor="middle" fill="#15202b" style="font-size:9px;font-weight:500">7.3%</text>
<rect x="966.00" y="94.00" width="72.20" height="61.53" fill="#a6becc" stroke="#ffffff" stroke-width="0.7"/>
<text x="1002.00" y="128.17" text-anchor="middle" fill="#15202b" style="font-size:9px;font-weight:500">8.2%</text>
<rect x="750.00" y="155.33" width="72.20" height="61.53" fill="#6590a8" stroke="#ffffff" stroke-width="0.7"/>
<text x="786.00" y="189.50" text-anchor="middle" fill="#ffffff" style="font-size:9px;font-weight:500">9.8%</text>
<rect x="822.00" y="155.33" width="72.20" height="61.53" fill="#7da1b5" stroke="#ffffff" stroke-width="0.7"/>
<text x="858.00" y="189.50" text-anchor="middle" fill="#ffffff" style="font-size:9px;font-weight:500">9.2%</text>
<rect x="894.00" y="155.33" width="72.20" height="61.53" fill="#eef2f5" stroke="#ffffff" stroke-width="0.7"/>
<text x="930.00" y="189.50" text-anchor="middle" fill="#15202b" style="font-size:9px;font-weight:500">6.4%</text>
<rect x="966.00" y="155.33" width="72.20" height="61.53" fill="#91afc0" stroke="#ffffff" stroke-width="0.7"/>
<text x="1002.00" y="189.50" text-anchor="middle" fill="#15202b" style="font-size:9px;font-weight:500">8.7%</text>
<rect x="750.00" y="216.67" width="72.20" height="61.53" fill="#a5becc" stroke="#ffffff" stroke-width="0.7"/>
<text x="786.00" y="250.83" text-anchor="middle" fill="#15202b" style="font-size:9px;font-weight:500">8.2%</text>
<rect x="822.00" y="216.67" width="72.20" height="61.53" fill="#6b94ab" stroke="#ffffff" stroke-width="0.7"/>
<text x="858.00" y="250.83" text-anchor="middle" fill="#ffffff" style="font-size:9px;font-weight:500">9.7%</text>
<rect x="894.00" y="216.67" width="72.20" height="61.53" fill="#1f5d80" stroke="#ffffff" stroke-width="0.7"/>
<text x="930.00" y="250.83" text-anchor="middle" fill="#ffffff" style="font-size:9px;font-weight:500">11.6%</text>
<rect x="966.00" y="216.67" width="72.20" height="61.53" fill="#88a9bc" stroke="#ffffff" stroke-width="0.7"/>
<text x="1002.00" y="250.83" text-anchor="middle" fill="#15202b" style="font-size:9px;font-weight:500">8.9%</text>
<text x="786.00" y="293" text-anchor="middle" class="small">H1</text>
<text x="858.00" y="293" text-anchor="middle" class="small">H2</text>
<text x="930.00" y="293" text-anchor="middle" class="small">H3</text>
<text x="1002.00" y="293" text-anchor="middle" class="small">H4</text>
<text x="744" y="136.93" text-anchor="end" class="small">L1</text>
<text x="744" y="198.27" text-anchor="end" class="small">L2</text>
<text x="744" y="259.60" text-anchor="end" class="small">L3</text>
<text x="1038" y="82" text-anchor="end" class="small">薄い＝小、濃い＝大</text>
<text x="62" y="320" class="label">直近4 token attention</text>
<rect x="62.00" y="332.00" width="72.20" height="61.53" fill="#789db2" stroke="#ffffff" stroke-width="0.7"/>
<text x="98.00" y="366.17" text-anchor="middle" fill="#ffffff" style="font-size:9px;font-weight:500">37.4%</text>
<rect x="134.00" y="332.00" width="72.20" height="61.53" fill="#eef2f5" stroke="#ffffff" stroke-width="0.7"/>
<text x="170.00" y="366.17" text-anchor="middle" fill="#15202b" style="font-size:9px;font-weight:500">28.8%</text>
<rect x="206.00" y="332.00" width="72.20" height="61.53" fill="#bfd0da" stroke="#ffffff" stroke-width="0.7"/>
<text x="242.00" y="366.17" text-anchor="middle" fill="#15202b" style="font-size:9px;font-weight:500">32.3%</text>
<rect x="278.00" y="332.00" width="72.20" height="61.53" fill="#adc4d1" stroke="#ffffff" stroke-width="0.7"/>
<text x="314.00" y="366.17" text-anchor="middle" fill="#15202b" style="font-size:9px;font-weight:500">33.5%</text>
<rect x="62.00" y="393.33" width="72.20" height="61.53" fill="#376e8d" stroke="#ffffff" stroke-width="0.7"/>
<text x="98.00" y="427.50" text-anchor="middle" fill="#ffffff" style="font-size:9px;font-weight:500">42.1%</text>
<rect x="134.00" y="393.33" width="72.20" height="61.53" fill="#8eadbf" stroke="#ffffff" stroke-width="0.7"/>
<text x="170.00" y="427.50" text-anchor="middle" fill="#15202b" style="font-size:9px;font-weight:500">35.7%</text>
<rect x="206.00" y="393.33" width="72.20" height="61.53" fill="#b3c7d3" stroke="#ffffff" stroke-width="0.7"/>
<text x="242.00" y="427.50" text-anchor="middle" fill="#15202b" style="font-size:9px;font-weight:500">33.1%</text>
<rect x="278.00" y="393.33" width="72.20" height="61.53" fill="#5f8ba4" stroke="#ffffff" stroke-width="0.7"/>
<text x="314.00" y="427.50" text-anchor="middle" fill="#ffffff" style="font-size:9px;font-weight:500">39.2%</text>
<rect x="62.00" y="454.67" width="72.20" height="61.53" fill="#1f5d80" stroke="#ffffff" stroke-width="0.7"/>
<text x="98.00" y="488.83" text-anchor="middle" fill="#ffffff" style="font-size:9px;font-weight:500">43.8%</text>
<rect x="134.00" y="454.67" width="72.20" height="61.53" fill="#2f6989" stroke="#ffffff" stroke-width="0.7"/>
<text x="170.00" y="488.83" text-anchor="middle" fill="#ffffff" style="font-size:9px;font-weight:500">42.6%</text>
<rect x="206.00" y="454.67" width="72.20" height="61.53" fill="#266284" stroke="#ffffff" stroke-width="0.7"/>
<text x="242.00" y="488.83" text-anchor="middle" fill="#ffffff" style="font-size:9px;font-weight:500">43.3%</text>
<rect x="278.00" y="454.67" width="72.20" height="61.53" fill="#739ab0" stroke="#ffffff" stroke-width="0.7"/>
<text x="314.00" y="488.83" text-anchor="middle" fill="#ffffff" style="font-size:9px;font-weight:500">37.7%</text>
<text x="98.00" y="531" text-anchor="middle" class="small">H1</text>
<text x="170.00" y="531" text-anchor="middle" class="small">H2</text>
<text x="242.00" y="531" text-anchor="middle" class="small">H3</text>
<text x="314.00" y="531" text-anchor="middle" class="small">H4</text>
<text x="56" y="374.93" text-anchor="end" class="small">L1</text>
<text x="56" y="436.27" text-anchor="end" class="small">L2</text>
<text x="56" y="497.60" text-anchor="end" class="small">L3</text>
<text x="350" y="320" text-anchor="end" class="small">薄い＝小、濃い＝大</text>
<text x="406" y="320" class="label">induction-like（一様比）</text>
<rect x="406.00" y="332.00" width="72.20" height="61.53" fill="#dee6ec" stroke="#ffffff" stroke-width="0.7"/>
<text x="442.00" y="366.17" text-anchor="middle" fill="#15202b" style="font-size:9px;font-weight:500">0.69x</text>
<rect x="478.00" y="332.00" width="72.20" height="61.53" fill="#bcced9" stroke="#ffffff" stroke-width="0.7"/>
<text x="514.00" y="366.17" text-anchor="middle" fill="#15202b" style="font-size:9px;font-weight:500">0.86x</text>
<rect x="550.00" y="332.00" width="72.20" height="61.53" fill="#eef2f5" stroke="#ffffff" stroke-width="0.7"/>
<text x="586.00" y="366.17" text-anchor="middle" fill="#15202b" style="font-size:9px;font-weight:500">0.61x</text>
<rect x="622.00" y="332.00" width="72.20" height="61.53" fill="#bfd0da" stroke="#ffffff" stroke-width="0.7"/>
<text x="658.00" y="366.17" text-anchor="middle" fill="#15202b" style="font-size:9px;font-weight:500">0.84x</text>
<rect x="406.00" y="393.33" width="72.20" height="61.53" fill="#c8d7df" stroke="#ffffff" stroke-width="0.7"/>
<text x="442.00" y="427.50" text-anchor="middle" fill="#15202b" style="font-size:9px;font-weight:500">0.80x</text>
<rect x="478.00" y="393.33" width="72.20" height="61.53" fill="#adc3d0" stroke="#ffffff" stroke-width="0.7"/>
<text x="514.00" y="427.50" text-anchor="middle" fill="#15202b" style="font-size:9px;font-weight:500">0.93x</text>
<rect x="550.00" y="393.33" width="72.20" height="61.53" fill="#eef2f5" stroke="#ffffff" stroke-width="0.7"/>
<text x="586.00" y="427.50" text-anchor="middle" fill="#15202b" style="font-size:9px;font-weight:500">0.61x</text>
<rect x="622.00" y="393.33" width="72.20" height="61.53" fill="#d8e2e9" stroke="#ffffff" stroke-width="0.7"/>
<text x="658.00" y="427.50" text-anchor="middle" fill="#15202b" style="font-size:9px;font-weight:500">0.72x</text>
<rect x="406.00" y="454.67" width="72.20" height="61.53" fill="#aec4d1" stroke="#ffffff" stroke-width="0.7"/>
<text x="442.00" y="488.83" text-anchor="middle" fill="#15202b" style="font-size:9px;font-weight:500">0.93x</text>
<rect x="478.00" y="454.67" width="72.20" height="61.53" fill="#b3c8d4" stroke="#ffffff" stroke-width="0.7"/>
<text x="514.00" y="488.83" text-anchor="middle" fill="#15202b" style="font-size:9px;font-weight:500">0.90x</text>
<rect x="550.00" y="454.67" width="72.20" height="61.53" fill="#1f5d80" stroke="#ffffff" stroke-width="0.7"/>
<text x="586.00" y="488.83" text-anchor="middle" fill="#ffffff" style="font-size:9px;font-weight:500">1.65x</text>
<rect x="622.00" y="454.67" width="72.20" height="61.53" fill="#dee6ec" stroke="#ffffff" stroke-width="0.7"/>
<text x="658.00" y="488.83" text-anchor="middle" fill="#15202b" style="font-size:9px;font-weight:500">0.69x</text>
<text x="442.00" y="531" text-anchor="middle" class="small">H1</text>
<text x="514.00" y="531" text-anchor="middle" class="small">H2</text>
<text x="586.00" y="531" text-anchor="middle" class="small">H3</text>
<text x="658.00" y="531" text-anchor="middle" class="small">H4</text>
<text x="400" y="374.93" text-anchor="end" class="small">L1</text>
<text x="400" y="436.27" text-anchor="end" class="small">L2</text>
<text x="400" y="497.60" text-anchor="end" class="small">L3</text>
<text x="694" y="320" text-anchor="end" class="small">薄い＝小、濃い＝大</text>
<text x="750" y="320" class="label">attention entropy</text>
<rect x="750.00" y="332.00" width="72.20" height="61.53" fill="#316a8a" stroke="#ffffff" stroke-width="0.7"/>
<text x="786.00" y="366.17" text-anchor="middle" fill="#ffffff" style="font-size:9px;font-weight:500">0.952</text>
<rect x="822.00" y="332.00" width="72.20" height="61.53" fill="#2c6788" stroke="#ffffff" stroke-width="0.7"/>
<text x="858.00" y="366.17" text-anchor="middle" fill="#ffffff" style="font-size:9px;font-weight:500">0.957</text>
<rect x="894.00" y="332.00" width="72.20" height="61.53" fill="#1f5d80" stroke="#ffffff" stroke-width="0.7"/>
<text x="930.00" y="366.17" text-anchor="middle" fill="#ffffff" style="font-size:9px;font-weight:500">0.972</text>
<rect x="966.00" y="332.00" width="72.20" height="61.53" fill="#236082" stroke="#ffffff" stroke-width="0.7"/>
<text x="1002.00" y="366.17" text-anchor="middle" fill="#ffffff" style="font-size:9px;font-weight:500">0.968</text>
<rect x="750.00" y="393.33" width="72.20" height="61.53" fill="#baccd8" stroke="#ffffff" stroke-width="0.7"/>
<text x="786.00" y="427.50" text-anchor="middle" fill="#15202b" style="font-size:9px;font-weight:500">0.797</text>
<rect x="822.00" y="393.33" width="72.20" height="61.53" fill="#326b8b" stroke="#ffffff" stroke-width="0.7"/>
<text x="858.00" y="427.50" text-anchor="middle" fill="#ffffff" style="font-size:9px;font-weight:500">0.951</text>
<rect x="894.00" y="393.33" width="72.20" height="61.53" fill="#eef2f5" stroke="#ffffff" stroke-width="0.7"/>
<text x="930.00" y="427.50" text-anchor="middle" fill="#15202b" style="font-size:9px;font-weight:500">0.738</text>
<rect x="966.00" y="393.33" width="72.20" height="61.53" fill="#618ca5" stroke="#ffffff" stroke-width="0.7"/>
<text x="1002.00" y="427.50" text-anchor="middle" fill="#ffffff" style="font-size:9px;font-weight:500">0.898</text>
<rect x="750.00" y="454.67" width="72.20" height="61.53" fill="#6791a9" stroke="#ffffff" stroke-width="0.7"/>
<text x="786.00" y="488.83" text-anchor="middle" fill="#ffffff" style="font-size:9px;font-weight:500">0.891</text>
<rect x="822.00" y="454.67" width="72.20" height="61.53" fill="#477a97" stroke="#ffffff" stroke-width="0.7"/>
<text x="858.00" y="488.83" text-anchor="middle" fill="#ffffff" style="font-size:9px;font-weight:500">0.927</text>
<rect x="894.00" y="454.67" width="72.20" height="61.53" fill="#50809c" stroke="#ffffff" stroke-width="0.7"/>
<text x="930.00" y="488.83" text-anchor="middle" fill="#ffffff" style="font-size:9px;font-weight:500">0.917</text>
<rect x="966.00" y="454.67" width="72.20" height="61.53" fill="#417593" stroke="#ffffff" stroke-width="0.7"/>
<text x="1002.00" y="488.83" text-anchor="middle" fill="#ffffff" style="font-size:9px;font-weight:500">0.934</text>
<text x="786.00" y="531" text-anchor="middle" class="small">H1</text>
<text x="858.00" y="531" text-anchor="middle" class="small">H2</text>
<text x="930.00" y="531" text-anchor="middle" class="small">H3</text>
<text x="1002.00" y="531" text-anchor="middle" class="small">H4</text>
<text x="744" y="374.93" text-anchor="end" class="small">L1</text>
<text x="744" y="436.27" text-anchor="end" class="small">L2</text>
<text x="744" y="497.60" text-anchor="end" class="small">L3</text>
<text x="1038" y="320" text-anchor="end" class="small">薄い＝小、濃い＝大</text>
</svg>