<svg xmlns="http://www.w3.org/2000/svg" width="1080" height="560" viewBox="0 0 1080 560" role="img">
<title>最終生成stepのtoken別参照量</title>
<desc>生attention、Valueノルムを含む構成比、8層attention rolloutを同じtoken位置で比較。</desc>
<rect width="100%" height="100%" fill="#fff"/>
<style>text{font-family:system-ui,sans-serif;fill:#17212b;font-size:12px}.small{font-size:10px;fill:#52606d}.title{font-size:20px;font-weight:500}.label{font-size:13px;font-weight:500}</style>
<text x="24" y="30" class="title">最終生成stepのtoken別参照量</text>
<text x="24" y="52" class="small">生attention、Valueノルムを含む構成比、8層attention rolloutを同じtoken位置で比較。</text>
<line x1="72" y1="442.00" x2="1022" y2="442.00" stroke="#e5e8eb"/>
<text x="63" y="446.00" text-anchor="end" class="small">0%</text>
<line x1="72" y1="372.00" x2="1022" y2="372.00" stroke="#e5e8eb"/>
<text x="63" y="376.00" text-anchor="end" class="small">4%</text>
<line x1="72" y1="302.00" x2="1022" y2="302.00" stroke="#e5e8eb"/>
<text x="63" y="306.00" text-anchor="end" class="small">8%</text>
<line x1="72" y1="232.00" x2="1022" y2="232.00" stroke="#e5e8eb"/>
<text x="63" y="236.00" text-anchor="end" class="small">12%</text>
<line x1="72" y1="162.00" x2="1022" y2="162.00" stroke="#e5e8eb"/>
<text x="63" y="166.00" text-anchor="end" class="small">16%</text>
<line x1="72" y1="92.00" x2="1022" y2="92.00" stroke="#e5e8eb"/>
<text x="63" y="96.00" text-anchor="end" class="small">20%</text>
<rect x="79.00" y="385.71" width="11.00" height="56.29" fill="#356f8a"/>
<rect x="90.00" y="385.43" width="11.00" height="56.57" fill="#b06b45"/>
<rect x="101.00" y="289.64" width="11.00" height="152.36" fill="#6c5b8e"/>
<text x="97.00" y="455" transform="rotate(60 97.00 455)" class="small">&lt;|bos|</text>
<rect x="129.00" y="397.95" width="11.00" height="44.05" fill="#356f8a"/>
<rect x="140.00" y="400.89" width="11.00" height="41.11" fill="#b06b45"/>
<rect x="151.00" y="344.15" width="11.00" height="97.85" fill="#6c5b8e"/>
<text x="147.00" y="455" transform="rotate(60 147.00 455)" class="small">&lt;|task</text>
<rect x="179.00" y="411.81" width="11.00" height="30.19" fill="#356f8a"/>
<rect x="190.00" y="415.62" width="11.00" height="26.38" fill="#b06b45"/>
<rect x="201.00" y="351.07" width="11.00" height="90.93" fill="#6c5b8e"/>
<text x="197.00" y="455" transform="rotate(60 197.00 455)" class="small">↵</text>
<rect x="229.00" y="395.42" width="11.00" height="46.58" fill="#356f8a"/>
<rect x="240.00" y="395.76" width="11.00" height="46.24" fill="#b06b45"/>
<rect x="251.00" y="362.34" width="11.00" height="79.66" fill="#6c5b8e"/>
<text x="247.00" y="455" transform="rotate(60 247.00 455)" class="small">整数リストxsから</text>
<rect x="279.00" y="378.45" width="11.00" height="63.55" fill="#356f8a"/>
<rect x="290.00" y="382.60" width="11.00" height="59.40" fill="#b06b45"/>
<rect x="301.00" y="354.05" width="11.00" height="87.95" fill="#6c5b8e"/>
<text x="297.00" y="455" transform="rotate(60 297.00 455)" class="small">各要素の絶対値</text>
<rect x="329.00" y="396.08" width="11.00" height="45.92" fill="#356f8a"/>
<rect x="340.00" y="412.74" width="11.00" height="29.26" fill="#b06b45"/>
<rect x="351.00" y="375.13" width="11.00" height="66.87" fill="#6c5b8e"/>
<text x="347.00" y="455" transform="rotate(60 347.00 455)" class="small">を取</text>
<rect x="379.00" y="388.46" width="11.00" height="53.54" fill="#356f8a"/>
<rect x="390.00" y="404.79" width="11.00" height="37.21" fill="#b06b45"/>
<rect x="401.00" y="380.20" width="11.00" height="61.80" fill="#6c5b8e"/>
<text x="397.00" y="455" transform="rotate(60 397.00 455)" class="small">るsolve関数を</text>
<rect x="429.00" y="398.10" width="11.00" height="43.90" fill="#356f8a"/>
<rect x="440.00" y="409.13" width="11.00" height="32.87" fill="#b06b45"/>
<rect x="451.00" y="385.62" width="11.00" height="56.38" fill="#6c5b8e"/>
<text x="447.00" y="455" transform="rotate(60 447.00 455)" class="small">いてください。</text>
<rect x="479.00" y="364.28" width="11.00" height="77.72" fill="#356f8a"/>
<rect x="490.00" y="353.71" width="11.00" height="88.29" fill="#b06b45"/>
<rect x="501.00" y="352.83" width="11.00" height="89.17" fill="#6c5b8e"/>
<text x="497.00" y="455" transform="rotate(60 497.00 455)" class="small">↵</text>
<rect x="529.00" y="375.10" width="11.00" height="66.90" fill="#356f8a"/>
<rect x="540.00" y="377.10" width="11.00" height="64.90" fill="#b06b45"/>
<rect x="551.00" y="381.91" width="11.00" height="60.09" fill="#6c5b8e"/>
<text x="547.00" y="455" transform="rotate(60 547.00 455)" class="small">&lt;|code</text>
<rect x="579.00" y="337.37" width="11.00" height="104.63" fill="#356f8a"/>
<rect x="590.00" y="320.98" width="11.00" height="121.02" fill="#b06b45"/>
<rect x="601.00" y="360.03" width="11.00" height="81.97" fill="#6c5b8e"/>
<text x="597.00" y="455" transform="rotate(60 597.00 455)" class="small">↵</text>
<rect x="629.00" y="371.90" width="11.00" height="70.10" fill="#356f8a"/>
<rect x="640.00" y="371.69" width="11.00" height="70.31" fill="#b06b45"/>
<rect x="651.00" y="381.36" width="11.00" height="60.64" fill="#6c5b8e"/>
<text x="647.00" y="455" transform="rotate(60 647.00 455)" class="small">def␠solve</text>
<rect x="679.00" y="360.42" width="11.00" height="81.58" fill="#356f8a"/>
<rect x="690.00" y="345.17" width="11.00" height="96.83" fill="#b06b45"/>
<rect x="701.00" y="383.79" width="11.00" height="58.21" fill="#6c5b8e"/>
<text x="697.00" y="455" transform="rotate(60 697.00 455)" class="small">(xs:␠list</text>
<rect x="729.00" y="377.85" width="11.00" height="64.15" fill="#356f8a"/>
<rect x="740.00" y="382.07" width="11.00" height="59.93" fill="#b06b45"/>
<rect x="751.00" y="397.15" width="11.00" height="44.85" fill="#6c5b8e"/>
<text x="747.00" y="455" transform="rotate(60 747.00 455)" class="small">:␠int)␠</text>
<rect x="779.00" y="250.89" width="11.00" height="191.11" fill="#356f8a"/>
<rect x="790.00" y="222.10" width="11.00" height="219.90" fill="#b06b45"/>
<rect x="801.00" y="335.07" width="11.00" height="106.93" fill="#6c5b8e"/>
<text x="797.00" y="455" transform="rotate(60 797.00 455)" class="small">-&gt;␠lis</text>
<rect x="829.00" y="159.93" width="11.00" height="282.07" fill="#356f8a"/>
<rect x="840.00" y="162.53" width="11.00" height="279.47" fill="#b06b45"/>
<rect x="851.00" y="297.68" width="11.00" height="144.32" fill="#6c5b8e"/>
<text x="847.00" y="455" transform="rotate(60 847.00 455)" class="small">output:␠l</text>
<rect x="879.00" y="362.00" width="11.00" height="80.00" fill="#356f8a"/>
<rect x="890.00" y="372.35" width="11.00" height="69.65" fill="#b06b45"/>
<rect x="901.00" y="398.40" width="11.00" height="43.60" fill="#6c5b8e"/>
<text x="897.00" y="455" transform="rotate(60 897.00 455)" class="small">␠=␠[]↵␠␠␠</text>
<rect x="929.00" y="306.75" width="11.00" height="135.25" fill="#356f8a"/>
<rect x="940.00" y="319.02" width="11.00" height="122.98" fill="#b06b45"/>
<rect x="951.00" y="378.75" width="11.00" height="63.25" fill="#6c5b8e"/>
<text x="947.00" y="455" transform="rotate(60 947.00 455)" class="small">xs:↵␠␠␠␠␠</text>
<rect x="979.00" y="220.21" width="11.00" height="221.79" fill="#356f8a"/>
<rect x="990.00" y="204.99" width="11.00" height="237.01" fill="#b06b45"/>
<rect x="1001.00" y="129.50" width="11.00" height="312.50" fill="#6c5b8e"/>
<text x="997.00" y="455" transform="rotate(60 997.00 455)" class="small">abs(value</text>
<rect x="72" y="528" width="12" height="12" fill="#356f8a"/>
<text x="89" y="538" class="small">生attention</text>
<rect x="332" y="528" width="12" height="12" fill="#b06b45"/>
<text x="349" y="538" class="small">attention×projected Value norm</text>
<rect x="592" y="528" width="12" height="12" fill="#6c5b8e"/>
<text x="609" y="538" class="small">attention rollout</text>
</svg>