<svg xmlns="http://www.w3.org/2000/svg" width="1080" height="560" viewBox="0 0 1080 560" role="img">
<title>最終生成stepのtoken別参照量</title>
<desc>生attention、Valueノルムを含む構成比、8層attention rolloutを同じtoken位置で比較。</desc>
<rect width="100%" height="100%" fill="#fff"/>
<style>text{font-family:system-ui,sans-serif;fill:#17212b;font-size:12px}.small{font-size:10px;fill:#52606d}.title{font-size:20px;font-weight:500}.label{font-size:13px;font-weight:500}</style>
<text x="24" y="30" class="title">最終生成stepのtoken別参照量</text>
<text x="24" y="52" class="small">生attention、Valueノルムを含む構成比、8層attention rolloutを同じtoken位置で比較。</text>
<line x1="72" y1="442.00" x2="1022" y2="442.00" stroke="#e5e8eb"/>
<text x="63" y="446.00" text-anchor="end" class="small">0%</text>
<line x1="72" y1="372.00" x2="1022" y2="372.00" stroke="#e5e8eb"/>
<text x="63" y="376.00" text-anchor="end" class="small">6%</text>
<line x1="72" y1="302.00" x2="1022" y2="302.00" stroke="#e5e8eb"/>
<text x="63" y="306.00" text-anchor="end" class="small">13%</text>
<line x1="72" y1="232.00" x2="1022" y2="232.00" stroke="#e5e8eb"/>
<text x="63" y="236.00" text-anchor="end" class="small">19%</text>
<line x1="72" y1="162.00" x2="1022" y2="162.00" stroke="#e5e8eb"/>
<text x="63" y="166.00" text-anchor="end" class="small">25%</text>
<line x1="72" y1="92.00" x2="1022" y2="92.00" stroke="#e5e8eb"/>
<text x="63" y="96.00" text-anchor="end" class="small">31%</text>
<rect x="79.00" y="373.18" width="11.00" height="68.82" fill="#356f8a"/>
<rect x="90.00" y="375.22" width="11.00" height="66.78" fill="#b06b45"/>
<rect x="101.00" y="129.50" width="11.00" height="312.50" fill="#6c5b8e"/>
<text x="97.00" y="455" transform="rotate(60 97.00 455)" class="small">&lt;|bos|</text>
<rect x="129.00" y="387.04" width="11.00" height="54.96" fill="#356f8a"/>
<rect x="140.00" y="388.37" width="11.00" height="53.63" fill="#b06b45"/>
<rect x="151.00" y="317.05" width="11.00" height="124.95" fill="#6c5b8e"/>
<text x="147.00" y="455" transform="rotate(60 147.00 455)" class="small">&lt;|task</text>
<rect x="179.00" y="405.61" width="11.00" height="36.39" fill="#356f8a"/>
<rect x="190.00" y="401.36" width="11.00" height="40.64" fill="#b06b45"/>
<rect x="201.00" y="353.47" width="11.00" height="88.53" fill="#6c5b8e"/>
<text x="197.00" y="455" transform="rotate(60 197.00 455)" class="small">↵</text>
<rect x="229.00" y="416.31" width="11.00" height="25.69" fill="#356f8a"/>
<rect x="240.00" y="418.03" width="11.00" height="23.97" fill="#b06b45"/>
<rect x="251.00" y="386.36" width="11.00" height="55.64" fill="#6c5b8e"/>
<text x="247.00" y="455" transform="rotate(60 247.00 455)" class="small">整数リストxsから</text>
<rect x="279.00" y="410.03" width="11.00" height="31.97" fill="#356f8a"/>
<rect x="290.00" y="414.50" width="11.00" height="27.50" fill="#b06b45"/>
<rect x="301.00" y="391.60" width="11.00" height="50.40" fill="#6c5b8e"/>
<text x="297.00" y="455" transform="rotate(60 297.00 455)" class="small">各要素の絶対値</text>
<rect x="329.00" y="420.20" width="11.00" height="21.80" fill="#356f8a"/>
<rect x="340.00" y="425.58" width="11.00" height="16.42" fill="#b06b45"/>
<rect x="351.00" y="401.51" width="11.00" height="40.49" fill="#6c5b8e"/>
<text x="347.00" y="455" transform="rotate(60 347.00 455)" class="small">を取</text>
<rect x="379.00" y="419.91" width="11.00" height="22.09" fill="#356f8a"/>
<rect x="390.00" y="423.08" width="11.00" height="18.92" fill="#b06b45"/>
<rect x="401.00" y="405.69" width="11.00" height="36.31" fill="#6c5b8e"/>
<text x="397.00" y="455" transform="rotate(60 397.00 455)" class="small">るsolve関数を</text>
<rect x="429.00" y="417.94" width="11.00" height="24.06" fill="#356f8a"/>
<rect x="440.00" y="421.36" width="11.00" height="20.64" fill="#b06b45"/>
<rect x="451.00" y="403.77" width="11.00" height="38.23" fill="#6c5b8e"/>
<text x="447.00" y="455" transform="rotate(60 447.00 455)" class="small">いてください。</text>
<rect x="479.00" y="394.38" width="11.00" height="47.62" fill="#356f8a"/>
<rect x="490.00" y="385.20" width="11.00" height="56.80" fill="#b06b45"/>
<rect x="501.00" y="399.77" width="11.00" height="42.23" fill="#6c5b8e"/>
<text x="497.00" y="455" transform="rotate(60 497.00 455)" class="small">↵</text>
<rect x="529.00" y="399.18" width="11.00" height="42.82" fill="#356f8a"/>
<rect x="540.00" y="398.61" width="11.00" height="43.39" fill="#b06b45"/>
<rect x="551.00" y="406.81" width="11.00" height="35.19" fill="#6c5b8e"/>
<text x="547.00" y="455" transform="rotate(60 547.00 455)" class="small">&lt;|code</text>
<rect x="579.00" y="382.48" width="11.00" height="59.52" fill="#356f8a"/>
<rect x="590.00" y="372.56" width="11.00" height="69.44" fill="#b06b45"/>
<rect x="601.00" y="406.84" width="11.00" height="35.16" fill="#6c5b8e"/>
<text x="597.00" y="455" transform="rotate(60 597.00 455)" class="small">↵</text>
<rect x="629.00" y="401.90" width="11.00" height="40.10" fill="#356f8a"/>
<rect x="640.00" y="403.74" width="11.00" height="38.26" fill="#b06b45"/>
<rect x="651.00" y="416.08" width="11.00" height="25.92" fill="#6c5b8e"/>
<text x="647.00" y="455" transform="rotate(60 647.00 455)" class="small">def␠solve</text>
<rect x="679.00" y="387.77" width="11.00" height="54.23" fill="#356f8a"/>
<rect x="690.00" y="385.40" width="11.00" height="56.60" fill="#b06b45"/>
<rect x="701.00" y="414.37" width="11.00" height="27.63" fill="#6c5b8e"/>
<text x="697.00" y="455" transform="rotate(60 697.00 455)" class="small">(xs:␠list</text>
<rect x="729.00" y="390.76" width="11.00" height="51.24" fill="#356f8a"/>
<rect x="740.00" y="389.94" width="11.00" height="52.06" fill="#b06b45"/>
<rect x="751.00" y="417.99" width="11.00" height="24.01" fill="#6c5b8e"/>
<text x="747.00" y="455" transform="rotate(60 747.00 455)" class="small">:␠int)␠</text>
<rect x="779.00" y="354.57" width="11.00" height="87.43" fill="#356f8a"/>
<rect x="790.00" y="344.94" width="11.00" height="97.06" fill="#b06b45"/>
<rect x="801.00" y="407.19" width="11.00" height="34.81" fill="#6c5b8e"/>
<text x="797.00" y="455" transform="rotate(60 797.00 455)" class="small">-&gt;␠lis</text>
<rect x="829.00" y="314.69" width="11.00" height="127.31" fill="#356f8a"/>
<rect x="840.00" y="306.68" width="11.00" height="135.32" fill="#b06b45"/>
<rect x="851.00" y="404.40" width="11.00" height="37.60" fill="#6c5b8e"/>
<text x="847.00" y="455" transform="rotate(60 847.00 455)" class="small">result:␠l</text>
<rect x="879.00" y="347.63" width="11.00" height="94.37" fill="#356f8a"/>
<rect x="890.00" y="358.18" width="11.00" height="83.82" fill="#b06b45"/>
<rect x="901.00" y="417.84" width="11.00" height="24.16" fill="#6c5b8e"/>
<text x="897.00" y="455" transform="rotate(60 897.00 455)" class="small">␠=␠[]↵␠␠␠</text>
<rect x="929.00" y="336.40" width="11.00" height="105.60" fill="#356f8a"/>
<rect x="940.00" y="338.17" width="11.00" height="103.83" fill="#b06b45"/>
<rect x="951.00" y="418.37" width="11.00" height="23.63" fill="#6c5b8e"/>
<text x="947.00" y="455" transform="rotate(60 947.00 455)" class="small">:↵␠␠␠␠␠␠␠</text>
<rect x="979.00" y="322.83" width="11.00" height="119.17" fill="#356f8a"/>
<rect x="990.00" y="331.96" width="11.00" height="110.04" fill="#b06b45"/>
<rect x="1001.00" y="384.26" width="11.00" height="57.74" fill="#6c5b8e"/>
<text x="997.00" y="455" transform="rotate(60 997.00 455)" class="small">abs(x)</text>
<rect x="72" y="528" width="12" height="12" fill="#356f8a"/>
<text x="89" y="538" class="small">生attention</text>
<rect x="332" y="528" width="12" height="12" fill="#b06b45"/>
<text x="349" y="538" class="small">attention×projected Value norm</text>
<rect x="592" y="528" width="12" height="12" fill="#6c5b8e"/>
<text x="609" y="538" class="small">attention rollout</text>
</svg>