<svg xmlns="http://www.w3.org/2000/svg" width="980" height="540" viewBox="0 0 980 540" role="img">
<title>繰り返し参照されたtoken／参照の少ないtoken</title>
<desc>左は全層・全headでtop 5に入った率。右は参照可能なstepでの平均attention。いずれも出現機会で正規化。</desc>
<rect width="100%" height="100%" fill="#fff"/>
<style>text{font-family:system-ui,sans-serif;fill:#17212b;font-size:12px}.small{font-size:10px;fill:#52606d}.title{font-size:20px;font-weight:500}.label{font-size:13px;font-weight:500}</style>
<text x="24" y="30" class="title">繰り返し参照されたtoken／参照の少ないtoken</text>
<text x="24" y="52" class="small">左は全層・全headでtop 5に入った率。右は参照可能なstepでの平均attention。いずれも出現機会で正規化。</text>
<text x="34" y="78" class="label">top 5へ繰り返し入ったtoken</text>
<text x="34" y="103" class="small">28: abs(value)</text>
<rect x="34" y="109" width="430" height="14" fill="#edf0f2"/>
<rect x="34" y="109" width="430.00" height="14" fill="#356f8a"/>
<text x="464" y="103" text-anchor="end" class="small">70.00%</text>
<text x="34" y="149" class="small">23: value␠+␠k</text>
<rect x="34" y="155" width="430" height="14" fill="#edf0f2"/>
<rect x="34" y="155" width="389.05" height="14" fill="#356f8a"/>
<text x="464" y="149" text-anchor="end" class="small">63.33%</text>
<text x="34" y="195" class="small">24: ]↵␠␠␠␠output:␠list[i</text>
<rect x="34" y="201" width="430" height="14" fill="#edf0f2"/>
<rect x="34" y="201" width="368.57" height="14" fill="#356f8a"/>
<text x="464" y="195" text-anchor="end" class="small">60.00%</text>
<text x="34" y="241" class="small">25: ␠=␠[]↵␠␠␠␠for␠value␠</text>
<rect x="34" y="247" width="430" height="14" fill="#edf0f2"/>
<rect x="34" y="247" width="330.18" height="14" fill="#356f8a"/>
<text x="464" y="241" text-anchor="end" class="small">53.75%</text>
<text x="34" y="287" class="small">0: &lt;|bos|&gt;</text>
<rect x="34" y="293" width="430" height="14" fill="#edf0f2"/>
<rect x="34" y="293" width="261.07" height="14" fill="#356f8a"/>
<text x="464" y="287" text-anchor="end" class="small">42.50%</text>
<text x="34" y="333" class="small">19: -&gt;␠list[int]:↵␠␠␠␠</text>
<rect x="34" y="339" width="430" height="14" fill="#edf0f2"/>
<rect x="34" y="339" width="230.36" height="14" fill="#356f8a"/>
<text x="464" y="333" text-anchor="end" class="small">37.50%</text>
<text x="34" y="379" class="small">1: &lt;|task|&gt;</text>
<rect x="34" y="385" width="430" height="14" fill="#edf0f2"/>
<rect x="34" y="385" width="223.78" height="14" fill="#356f8a"/>
<text x="464" y="379" text-anchor="end" class="small">36.43%</text>
<text x="34" y="425" class="small">17: (xs:␠list[int],␠k</text>
<rect x="34" y="431" width="430" height="14" fill="#edf0f2"/>
<rect x="34" y="431" width="217.56" height="14" fill="#356f8a"/>
<text x="464" y="425" text-anchor="end" class="small">35.42%</text>
<text x="520" y="78" class="label">平均attentionが小さいtoken</text>
<text x="520" y="103" class="small">7: に</text>
<rect x="520" y="109" width="430" height="14" fill="#edf0f2"/>
<rect x="520" y="109" width="367.68" height="14" fill="#a96745"/>
<text x="950" y="103" text-anchor="end" class="small">3.21%</text>
<text x="520" y="149" class="small">8: して</text>
<rect x="520" y="155" width="430" height="14" fill="#edf0f2"/>
<rect x="520" y="155" width="381.05" height="14" fill="#a96745"/>
<text x="950" y="149" text-anchor="end" class="small">3.32%</text>
<text x="520" y="195" class="small">9: 降</text>
<rect x="520" y="201" width="430" height="14" fill="#edf0f2"/>
<rect x="520" y="201" width="383.26" height="14" fill="#a96745"/>
<text x="950" y="195" text-anchor="end" class="small">3.34%</text>
<text x="520" y="241" class="small">11: るsolve関数を書</text>
<rect x="520" y="247" width="430" height="14" fill="#edf0f2"/>
<rect x="520" y="247" width="394.12" height="14" fill="#a96745"/>
<text x="950" y="241" text-anchor="end" class="small">3.44%</text>
<text x="520" y="287" class="small">10: 順に並べ</text>
<rect x="520" y="293" width="430" height="14" fill="#edf0f2"/>
<rect x="520" y="293" width="398.28" height="14" fill="#a96745"/>
<text x="950" y="287" text-anchor="end" class="small">3.47%</text>
<text x="520" y="333" class="small">4: の</text>
<rect x="520" y="339" width="430" height="14" fill="#edf0f2"/>
<rect x="520" y="339" width="423.15" height="14" fill="#a96745"/>
<text x="950" y="333" text-anchor="end" class="small">3.69%</text>
<text x="520" y="379" class="small">6: 絶対値</text>
<rect x="520" y="385" width="430" height="14" fill="#edf0f2"/>
<rect x="520" y="385" width="425.20" height="14" fill="#a96745"/>
<text x="950" y="379" text-anchor="end" class="small">3.71%</text>
<text x="520" y="425" class="small">12: いてください。</text>
<rect x="520" y="431" width="430" height="14" fill="#edf0f2"/>
<rect x="520" y="431" width="430.00" height="14" fill="#a96745"/>
<text x="950" y="425" text-anchor="end" class="small">3.75%</text>
</svg>